<?xml version="1.0" encoding="UTF-8"?>
<svg version="1.1" xmlns="http://www.w3.org/2000/svg" width="132" height="132">
<path d="M0 0 C43.56 0 87.12 0 132 0 C132 43.56 132 87.12 132 132 C88.44 132 44.88 132 0 132 C0 88.44 0 44.88 0 0 Z " fill="#030000" transform="translate(0,0)"/>
<path d="M0 0 C7.59 0 15.18 0 23 0 C23 0.66 23 1.32 23 2 C23.66 2 24.32 2 25 2 C25 5.3 25 8.6 25 12 C24.34 12 23.68 12 23 12 C23 12.66 23 13.32 23 14 C23.66 14 24.32 14 25 14 C25 17.63 25 21.26 25 25 C24.34 25 23.68 25 23 25 C23 25.66 23 26.32 23 27 C15.41 27 7.82 27 0 27 C0 18.09 0 9.18 0 0 Z " fill="#DB1920" transform="translate(8,29)"/>
<path d="M0 0 C6.93 0 13.86 0 21 0 C21 8.91 21 17.82 21 27 C14.07 27 7.14 27 0 27 C0 18.09 0 9.18 0 0 Z " fill="#D81920" transform="translate(53,72)"/>
<path d="M0 0 C8.25 0 16.5 0 25 0 C25 2.64 25 5.28 25 8 C19.39 8 13.78 8 8 8 C8 8.66 8 9.32 8 10 C12.29 10 16.58 10 21 10 C21 11.98 21 13.96 21 16 C16.71 16 12.42 16 8 16 C8 16.99 8 17.98 8 19 C13.28 19 18.56 19 24 19 C24 21.31 24 23.62 24 26 C16.08 26 8.16 26 0 26 C0 17.42 0 8.84 0 0 Z " fill="#DF1921" transform="translate(95,29)"/>
<path d="M0 0 C5.61 0 11.22 0 17 0 C17 0.66 17 1.32 17 2 C17.66 2 18.32 2 19 2 C19 2.66 19 3.32 19 4 C19.66 4 20.32 4 21 4 C21 7.3 21 10.6 21 14 C20.34 14 19.68 14 19 14 C19 14.99 19 15.98 19 17 C19.66 17 20.32 17 21 17 C21 20.3 21 23.6 21 27 C18.03 27 15.06 27 12 27 C12 23.7 12 20.4 12 17 C11.01 17 10.02 17 9 17 C9 20.3 9 23.6 9 27 C6.03 27 3.06 27 0 27 C0 18.09 0 9.18 0 0 Z " fill="#D4181F" transform="translate(76,72)"/>
<path d="M0 0 C6.93 0 13.86 0 21 0 C21 8.91 21 17.82 21 27 C18.69 27 16.38 27 14 27 C13.67 23.37 13.34 19.74 13 16 C12.01 16.33 11.02 16.66 10 17 C10 14.03 10 11.06 10 8 C9.34 8 8.68 8 8 8 C8 14.27 8 20.54 8 27 C5.36 27 2.72 27 0 27 C0 18.09 0 9.18 0 0 Z " fill="#D71820" transform="translate(99,72)"/>
<path d="M0 0 C2.97 0 5.94 0 9 0 C9.2475 0.804375 9.495 1.60875 9.75 2.4375 C10.72238859 5.171081 10.72238859 5.171081 13.125 5.8125 C14.053125 5.9053125 14.053125 5.9053125 15 6 C15.33 4.02 15.66 2.04 16 0 C18.97 0 21.94 0 25 0 C25 2.64 25 5.28 25 8 C24.34 8 23.68 8 23 8 C23 9.32 23 10.64 23 12 C22.34 12 21.68 12 21 12 C21 13.65 21 15.3 21 17 C19.68 17 18.36 17 17 17 C17 20.3 17 23.6 17 27 C14.03 27 11.06 27 8 27 C8 23.7 8 20.4 8 17 C6.68 17 5.36 17 4 17 C2.50178941 13.62902617 2 11.79557881 2 8 C1.34 8 0.68 8 0 8 C0 5.36 0 2.72 0 0 Z " fill="#D71820" transform="translate(37,29)"/>
<path d="M0 0 C8.25 0 16.5 0 25 0 C25 2.97 25 5.94 25 9 C22.36 9 19.72 9 17 9 C17 14.94 17 20.88 17 27 C14.03 27 11.06 27 8 27 C8 20.73 8 14.46 8 8 C5.36 8 2.72 8 0 8 C0 5.36 0 2.72 0 0 Z " fill="#D71920" transform="translate(66,29)"/>
<path d="M0 0 C6.93 0 13.86 0 21 0 C21 2.64 21 5.28 21 8 C20.67 8.33 20.34 8.66 20 9 C18.35 9 16.7 9 15 9 C15 14.94 15 20.88 15 27 C12.03 27 9.06 27 6 27 C6 21.06 6 15.12 6 9 C4.02 9 2.04 9 0 9 C0 6.03 0 3.06 0 0 Z " fill="#D5181F" transform="translate(31,72)"/>
<path d="M0 0 C6.93 0 13.86 0 21 0 C21 2.97 21 5.94 21 9 C17.04 9 13.08 9 9 9 C9 11.64 9 14.28 9 17 C6.03 17 3.06 17 0 17 C0 11.39 0 5.78 0 0 Z " fill="#D3181F" transform="translate(8,72)"/>
<path d="M0 0 C2.64 0 5.28 0 8 0 C8 5.61 8 11.22 8 17 C1.07 17 -5.86 17 -13 17 C-13 14.36 -13 11.72 -13 9 C-8.71 9 -4.42 9 0 9 C0 6.03 0 3.06 0 0 Z " fill="#DC1921" transform="translate(21,82)"/>
<path d="M0 0 C7.59 0 15.18 0 23 0 C23 1.98 23 3.96 23 6 C19.04 6 15.08 6 11 6 C11 5.67 11 5.34 11 5 C14.3 5 17.6 5 21 5 C21 3.68 21 2.36 21 1 C14.4 1 7.8 1 1 1 C1 8.26 1 15.52 1 23 C7.6 23 14.2 23 21 23 C21 22.01 21 21.02 21 20 C16.38 20 11.76 20 7 20 C7 19.67 7 19.34 7 19 C12.28 19 17.56 19 23 19 C23 20.98 23 22.96 23 25 C15.41 25 7.82 25 0 25 C0 16.75 0 8.5 0 0 Z " fill="#F41C24" transform="translate(96,30)"/>
<path d="M0 0 C6.27 0 12.54 0 19 0 C19 8.25 19 16.5 19 25 C18.67 25 18.34 25 18 25 C18 17.41 18 9.82 18 2 C12.72 2 7.44 2 2 2 C2 9.59 2 17.18 2 25 C1.34 25 0.68 25 0 25 C0 16.75 0 8.5 0 0 Z " fill="#EF1B24" transform="translate(54,73)"/>
<path d="M0 0 C6.93 0 13.86 0 21 0 C21 0.33 21 0.66 21 1 C14.73 1 8.46 1 2 1 C2 8.26 2 15.52 2 23 C8.27 23 14.54 23 21 23 C21 23.66 21 24.32 21 25 C14.07 25 7.14 25 0 25 C0 16.75 0 8.5 0 0 Z " fill="#F21C24" transform="translate(9,30)"/>
<path d="M0 0 C4.95 0 9.9 0 15 0 C15 0.66 15 1.32 15 2 C10.71 2 6.42 2 2 2 C2 9.59 2 17.18 2 25 C1.34 25 0.68 25 0 25 C0 16.75 0 8.5 0 0 Z " fill="#F21C24" transform="translate(77,73)"/>
<path d="M0 0 C3.96 0 7.92 0 12 0 C12 0.33 12 0.66 12 1 C9.36 1 6.72 1 4 1 C4 3.97 4 6.94 4 10 C-0.29 10 -4.58 10 -9 10 C-9 9.34 -9 8.68 -9 8 C-6.03 8 -3.06 8 0 8 C0 5.36 0 2.72 0 0 Z " fill="#210304" transform="translate(17,81)"/>
<path d="M0 0 C0.33 0 0.66 0 1 0 C1 8.91 1 17.82 1 27 C0.34 27 -0.32 27 -1 27 C-1 23.7 -1 20.4 -1 17 C-1.66 17 -2.32 17 -3 17 C-3 16.01 -3 15.02 -3 14 C-2.34 14 -1.68 14 -1 14 C-1.01160156 13.40832031 -1.02320312 12.81664063 -1.03515625 12.20703125 C-1.08322386 7.99768215 -1.06006883 4.1077667 0 0 Z " fill="#2C0406" transform="translate(98,72)"/>
<path d="M0 0 C2.64 0 5.28 0 8 0 C8 1.65 8 3.3 8 5 C5.03 5 2.06 5 -1 5 C-0.67 3.35 -0.34 1.7 0 0 Z " fill="#750D11" transform="translate(17,43)"/>
<path d="M0 0 C1.32 0 2.64 0 4 0 C4 3.3 4 6.6 4 10 C2.68 10 1.36 10 0 10 C0 6.7 0 3.4 0 0 Z " fill="#1F0304" transform="translate(62,81)"/>
<path d="M0 0 C2.97 0 5.94 0 9 0 C9 1.32 9 2.64 9 4 C6.03 4 3.06 4 0 4 C0 2.68 0 1.36 0 0 Z " fill="#2C0406" transform="translate(16,37)"/>
<path d="M0 0 C1.65 0 3.3 0 5 0 C5 2.31 5 4.62 5 7 C3.35 6.67 1.7 6.34 0 6 C0 4.02 0 2.04 0 0 Z " fill="#44070A" transform="translate(84,80)"/>
<path d="M0 0 C0.33 0 0.66 0 1 0 C1 2.31 1 4.62 1 7 C1.99 7 2.98 7 4 7 C4 4.69 4 2.38 4 0 C4.33 0 4.66 0 5 0 C5.33 2.97 5.66 5.94 6 9 C4.02 9 2.04 9 0 9 C0 6.03 0 3.06 0 0 Z " fill="#F41C24" transform="translate(47,46)"/>
<path d="M0 0 C2.31 0 4.62 0 7 0 C7 0.99 7 1.98 7 3 C4.69 3 2.38 3 0 3 C0 2.01 0 1.02 0 0 Z " fill="#040000" transform="translate(17,44)"/>
</svg>
